<svg id="Layer_1" data-name="Layer 1" xmlns="http://www.w3.org/2000/svg" viewBox="0 0 512 512"><title>info</title><path d="M256,184.57a35.71,35.71,0,1,0-35.71-35.71A35.68,35.68,0,0,0,256,184.57ZM256,6C117.92,6,6,117.92,6,256S117.92,506,256,506,506,394.08,506,256,394.08,6,256,6Zm0,428.57A178.57,178.57,0,1,1,434.57,256,178.55,178.55,0,0,1,256,434.57ZM291.71,256c0-36.83-35.71-35.71-35.71-35.71H220.29c-35.71,0-35.71,35.71-35.71,35.71h35.71V363.14c0,35.71,35.71,35.71,35.71,35.71h35.71c35.71,0,35.71-35.71,35.71-35.71H291.71Z"/></svg>