<?xml version="1.0" encoding="utf-8"?>
<!-- Generator: Adobe Illustrator 21.0.0, SVG Export Plug-In . SVG Version: 6.00 Build 0)  -->
<!DOCTYPE svg PUBLIC "-//W3C//DTD SVG 1.1//EN" "http://www.w3.org/Graphics/SVG/1.1/DTD/svg11.dtd">
<svg version="1.1" id="Layer_1" xmlns="http://www.w3.org/2000/svg" xmlns:xlink="http://www.w3.org/1999/xlink" x="0px" y="0px"
	 viewBox="0 0 512 512" style="enable-background:new 0 0 512 512;" xml:space="preserve">
<path d="M102.7,246.2H60.5c-1.1,0-2,0.9-2,2v20.6c0,1.1,0.9,2,2,2H77v25.6c0,0-3.7,1.2-13.9,1.2c-12.1,0-28.9-4.4-28.9-41.4
	c0-37,17.5-41.9,34-41.9c14.3,0,20.4,2.5,24.3,3.7c1.2,0.4,2.3-0.8,2.3-1.9l4.7-19.9c0-0.5-0.2-1.1-0.7-1.5
	c-1.6-1.1-11.3-6.5-35.7-6.5c-28.2,0-57.1,12-57.1,69.6c0,57.6,33.1,66.2,61,66.2c23.1,0,37.1-9.9,37.1-9.9c0.6-0.3,0.6-1.1,0.6-1.5
	v-64.4C104.7,247.1,103.8,246.2,102.7,246.2z M316.2,193h-23.7c-1.1,0-2,0.9-2,2v45.9h-37V195c0-1.1-0.9-2-2-2h-23.8
	c-1.1,0-1.9,0.9-1.9,2v124.3c0,1.1,0.9,2,1.9,2h23.8c1.1,0,2-0.9,2-2v-53.2h37l-0.1,53.2c0,1.1,0.9,2,1.9,2h23.8
	c1.1,0,1.9-0.9,1.9-2l0.1-124.4C318.2,193.9,317.3,193,316.2,193z M131.1,195.8c-8.5,0-15.3,6.9-15.3,15.5c0,8.6,6.9,15.5,15.3,15.5
	s15.3-6.9,15.3-15.5C146.4,202.8,139.6,195.8,131.1,195.8z M144.8,235.7c0-1.1-0.9-2-1.9-2h-23.7c-1.1,0-2.1,1.1-2.1,2.2
	c0,0,0,69.1,0,82.2c0,2.4,1.5,3.1,3.4,3.1c0,0,10.1,0,21.3,0c2.3,0,2.9-1.1,2.9-3.2c0-4.4,0-21.7,0-25
	C144.8,289.9,144.8,235.7,144.8,235.7z M408.2,233.9h-23.6c-1.1,0-1.9,0.9-1.9,2v61c0,0-6,4.4-14.5,4.4c-8.5,0-10.8-3.9-10.8-12.2
	c0-8.3,0-53.2,0-53.2c0-1.1-0.9-2-1.9-2h-23.9c-1.1,0-2,0.9-2,2c0,0,0,32.5,0,57.2c0,24.7,13.8,30.8,32.7,30.8
	c15.6,0,28.1-8.6,28.1-8.6s0.6,4.5,0.9,5c0.2,0.5,1,1.1,1.7,1.1h15.2c1.1,0,2-0.9,2-2l0.1-83.5C410.1,234.8,409.3,233.9,408.2,233.9
	z M472.8,231.1c-13.4,0-22.5,6-22.5,6V195c0-1.1-0.9-2-1.9-2h-23.8c-1.1,0-1.9,0.9-1.9,2l-0.1,124.4c0,1.1,0.9,2,2,2
	c0,0,16.6,0,16.6,0c0.7,0,1.3-0.4,1.7-1c0.4-0.7,1-5.7,1-5.7s9.7,9.2,28.2,9.2c21.7,0,34.1-11,34.1-49.3
	C506,236.1,486.2,231.1,472.8,231.1z M463.5,301.2c-8.2-0.2-13.7-4-13.7-4v-39.4c0,0,5.5-3.4,12.2-4c8.5-0.8,16.7,1.8,16.7,22.1
	C478.6,297.3,474.9,301.5,463.5,301.2z M213.4,300.7c-1,0-3.7,0.4-6.4,0.4c-8.7,0-11.7-4.1-11.7-9.3c0-5.3,0-35,0-35h17.8
	c1.1,0,2-0.9,2-2v-19.2c0-1.1-0.9-2-2-2h-17.8l0-23.5c0-0.9-0.5-1.3-1.5-1.3h-24.3c-0.9,0-1.5,0.4-1.5,1.3v24.3c0,0-12.2,2.9-13,3.2
	c-0.8,0.2-1.4,1-1.4,1.9v15.3c0,1.1,0.9,2,2,2H168c0,0,0,16,0,36.8c0,27.3,19.2,30,32.1,30c5.9,0,13-1.9,14.1-2.3
	c0.7-0.2,1.1-1,1.1-1.8l0-16.8C215.4,301.6,214.4,300.7,213.4,300.7z"/>
</svg>
