<svg id="Layer_1" data-name="Layer 1" xmlns="http://www.w3.org/2000/svg" viewBox="0 0 512 512"><title>person</title><path d="M349.75,99.75A93.75,93.75,0,1,0,256,193.5,93.75,93.75,0,0,0,349.75,99.75ZM256,162.25a62.5,62.5,0,1,1,62.5-62.5A62.52,62.52,0,0,1,256,162.25Zm62.5,31.25h-125A62.52,62.52,0,0,0,131,256v62.5A62.53,62.53,0,0,0,193.5,381V506h125V381A62.54,62.54,0,0,0,381,318.5V256A62.53,62.53,0,0,0,318.5,193.5Zm31.25,125a31.23,31.23,0,0,1-31.25,31.25v-62.5H287.25v187.5h-62.5V287.25H193.5v62.5a31.25,31.25,0,0,1-31.25-31.25V256a31.27,31.27,0,0,1,31.25-31.25h125A31.25,31.25,0,0,1,349.75,256Z"/></svg>