<svg id="Layer_1" data-name="Layer 1" xmlns="http://www.w3.org/2000/svg" viewBox="0 0 512 512"><title>repo-forked</title><path d="M443.32,68.44a62.44,62.44,0,0,0-124.88,0,62.93,62.93,0,0,0,31.22,54.15v51.71L256,277.71,162.34,174.29V122.59a62.44,62.44,0,1,0-62.44,0v76.1L224.78,336.24v53.17a62.44,62.44,0,1,0,62.44,0V336.24L412.1,198.68v-76.1A62.33,62.33,0,0,0,443.32,68.44ZM131.12,37.71A30.24,30.24,0,1,1,100.88,68,30.4,30.4,0,0,1,131.12,37.71ZM256,472.34a30.24,30.24,0,1,1,30.24-30.24A30.4,30.4,0,0,1,256,472.34ZM380.88,37.71A30.24,30.24,0,1,1,350.63,68,30.4,30.4,0,0,1,380.88,37.71Z"/></svg>