<svg id="Layer_1" data-name="Layer 1" xmlns="http://www.w3.org/2000/svg" viewBox="0 0 512 512"><title>octocat</title><path d="M256,12.16c-138.06,0-250,111.94-250,250C6,372.64,77.63,466.33,177,499.38c12.5,2.29,17.06-5.43,17.06-12,0-6-.23-25.67-.35-46.54-69.52,15.11-84.21-29.48-84.21-29.48-11.38-28.87-27.76-36.56-27.76-36.56-22.72-15.5,1.72-15.2,1.72-15.2,25.1,1.74,38.32,25.76,38.32,25.76,22.31,38.21,58.53,27.16,72.75,20.75,2.27-16.11,8.74-27.16,15.87-33.39C154.88,366.38,96.5,344.93,96.5,249.13c0-27.31,9.75-49.59,25.71-67.09-2.55-6.35-11.15-31.78,2.47-66.19,0,0,21-6.71,68.76,25.63a236.66,236.66,0,0,1,125.15,0c47.7-32.38,68.7-25.63,68.7-25.63,13.67,34.44,5.07,59.84,2.5,66.16,16,17.5,25.7,39.78,25.7,67.09,0,96-58.47,117.19-114.17,123.38,9,7.75,17,22.95,17,46.26,0,33.42-.34,60.36-.34,68.6,0,6.65,4.55,14.43,17.21,12C434.44,466.27,506,372.58,506,262.16,506,124.1,394.06,12.16,256,12.16Z"/></svg>