<svg id="Layer_1" data-name="Layer 1" xmlns="http://www.w3.org/2000/svg" viewBox="0 0 512 512"><title>branch</title><path d="M363.14,77.43a71.23,71.23,0,0,0-35.71,133v9.89s0,71.43-71.43,71.43c-29.61,0-52.82,6.35-71.43,16.08V139a71.43,71.43,0,1,0-71.43,0V373a71.4,71.4,0,1,0,88,13.18c10.39-12.77,27.29-23.09,54.83-23.09,141.74,0,142.86-142.86,142.86-142.86V210.4a71.23,71.23,0,0,0-35.71-133ZM148.86,41.71a35.71,35.71,0,1,1-35.71,35.71A35.67,35.67,0,0,1,148.86,41.71Zm0,428.57a35.71,35.71,0,1,1,35.71-35.71A35.68,35.68,0,0,1,148.86,470.29ZM363.14,184.57a35.71,35.71,0,1,1,35.71-35.71A35.68,35.68,0,0,1,363.14,184.57Z"/></svg>